<svg xmlns="http://www.w3.org/2000/svg" xmlns:xlink="http://www.w3.org/1999/xlink" viewBox="0 0 100 172.5" version="1.1" x="0px" y="0px"><title>airport</title><desc>Created with Sketch.</desc><g stroke="none" stroke-width="1" fill="none" fill-rule="evenodd"><g transform="translate(-8277.000000, -4628.000000)" fill="#000000" fill-rule="nonzero"><path d="M8319,4740.25 C8317.0427,4734.54121 8313.46044,4729.5285 8308.69332,4725.82771 L8296.97433,4716.73007 C8284.94114,4707.38851 8277.63418,4693.22039 8277,4678 C8277,4650.38576 8299.38576,4628 8327,4628 C8354.61424,4628 8377,4650.38576 8377,4678 C8376.36582,4693.22039 8369.05886,4707.38851 8357.02567,4716.73007 L8345.30668,4725.82771 C8340.53956,4729.5285 8336.9573,4734.54121 8335,4740.25 L8333.62162,4744.27027 C8332.65157,4747.0996 8329.99101,4749 8327,4749 C8324.00899,4749 8321.34843,4747.0996 8320.37838,4744.27027 L8319,4740.25 Z M8327,4766 C8315.95431,4766 8307,4764.65685 8307,4763 C8307,4761.34315 8315.95431,4760 8327,4760 C8338.04569,4760 8347,4761.34315 8347,4763 C8347,4764.65685 8338.04569,4766 8327,4766 Z M8327,4717 C8349.09139,4717 8367,4699.09139 8367,4677 C8367,4654.90861 8349.09139,4637 8327,4637 C8304.90861,4637 8287,4654.90861 8287,4677 C8287,4699.09139 8304.90861,4717 8327,4717 Z M8324.33154,4704.39985 L8326.47503,4684.54365 C8326.54692,4684.19262 8326.47436,4683.92184 8326.25733,4683.73119 C8326.04053,4683.54048 8325.73854,4683.497 8325.35157,4683.60069 L8311.77186,4687.23936 C8310.92064,4687.46745 8310.34595,4687.95321 8310.04754,4688.69659 L8307.88619,4693.62969 C8307.58778,4694.37306 8307.01309,4694.85882 8306.16187,4695.08691 L8303.37629,4695.8333 C8303.06685,4695.91621 8302.80362,4695.86235 8302.58659,4695.6717 C8302.36956,4695.48106 8302.25847,4695.2206 8302.25283,4694.89034 L8303.26349,4685.6628 C8303.28828,4684.82679 8303.08097,4684.0531 8302.64149,4683.34149 L8297.15247,4675.85554 C8296.99222,4675.5667 8296.9582,4675.28559 8297.05083,4675.01198 C8297.14347,4674.73836 8297.3445,4674.56009 8297.65393,4674.47718 L8300.43951,4673.73079 C8301.29074,4673.5027 8302.03131,4673.63604 8302.66143,4674.13062 L8306.99977,4677.32213 C8307.62988,4677.81671 8308.37046,4677.95005 8309.22168,4677.72196 L8322.80139,4674.08329 C8323.11106,4674.00031 8323.33136,4673.81689 8323.46252,4673.53294 C8323.59392,4673.24894 8323.54063,4672.97299 8323.30286,4672.70493 L8311.51844,4656.5807 C8311.3582,4656.29187 8311.32441,4656.0107 8311.41681,4655.73714 C8311.50944,4655.46352 8311.71047,4655.28526 8312.0199,4655.20235 L8316.19828,4654.08276 C8316.9722,4653.87538 8317.68437,4654.05776 8318.33523,4654.62975 L8336.1012,4669.40002 C8336.67465,4669.99276 8337.38704,4670.17507 8338.23816,4669.94702 L8350.42507,4666.68155 C8351.19889,4666.4742 8351.96503,4666.39331 8352.72362,4666.43885 L8353.62939,4666.56935 C8354.15585,4666.67708 8354.75206,4666.89052 8355.41814,4667.20964 C8356.08422,4667.52876 8356.56717,4667.93838 8356.86703,4668.4386 C8356.9859,4668.57257 8357.08023,4668.69247 8357.14998,4668.79818 C8357.21973,4668.90389 8357.26502,4668.99538 8357.28576,4669.0728 C8357.44612,4669.3616 8357.55732,4669.62203 8357.61952,4669.85416 C8357.68172,4670.08629 8357.70527,4670.32878 8357.69006,4670.58165 C8357.87258,4672.19136 8356.99465,4673.71214 8355.05611,4675.14379 C8354.44265,4675.63994 8353.74907,4675.99161 8352.97525,4676.19895 L8340.78834,4679.46442 C8339.93734,4679.69245 8339.41154,4680.20653 8339.21118,4681.00661 L8331.21053,4702.68103 C8330.93286,4703.50182 8330.4073,4704.01585 8329.63337,4704.22322 L8325.455,4705.34281 C8325.14557,4705.42572 8324.88234,4705.37186 8324.66531,4705.18121 C8324.44851,4704.9905 8324.33718,4704.73011 8324.33154,4704.39985 Z"/></g></g><text x="0" y="153" fill="#000000" font-size="5px" font-weight="bold" font-family="'Helvetica Neue', Helvetica, Arial-Unicode, Arial, Sans-serif">Created by Silviu Ojog</text><text x="0" y="158" fill="#000000" font-size="5px" font-weight="bold" font-family="'Helvetica Neue', Helvetica, Arial-Unicode, Arial, Sans-serif">from the Noun Project</text></svg>